# MagicaVoxel @ Ephtracy

# group
o 

# material
mtllib svetlo2.mtl
usemtl palette

# normals
vn -1 0 0
vn 1 0 0
vn 0 0 1
vn 0 0 -1
vn 0 -1 0
vn 0 1 0

# texcoords
vt 0.244141 0.5
vt 0.279297 0.5
vt 0.306641 0.5

# verts
v -1 3.6 0.2
v -1 3.6 0.1
v -1 3.8 0.3
v -1 3.8 0.2
v -1 3.8 0.1
v -1 3.8 0
v -1 3.9 0.3
v -1 3.9 0
v -0.9 3.5 0.2
v -0.9 3.5 0.1
v -0.9 3.6 0.2
v -0.9 3.6 0.1
v -0.9 3.7 0.3
v -0.9 3.7 0.2
v -0.9 3.7 0.1
v -0.9 3.7 0
v -0.9 3.8 0.3
v -0.9 3.8 0.2
v -0.9 3.8 0.1
v -0.9 3.8 0
v -0.3 3.3 0.1
v -0.3 3.3 0
v -0.3 3.4 0.1
v -0.3 3.4 0
v -0.2 3.6 0.4
v -0.2 3.6 0.3
v -0.2 3.7 0.4
v -0.2 3.7 0.3
v 0.3 3.7 0.2
v 0.3 3.7 0.1
v 0.3 3.8 0.2
v 0.3 3.8 0.1
v 0.9 3.7 0.2
v 0.9 3.7 0.1
v 0.9 3.8 0.3
v 0.9 3.8 0.2
v 0.9 3.8 0.1
v 0.9 3.8 0
v 0.9 3.9 0.3
v 0.9 3.9 0
v 1 3.6 0.2
v 1 3.6 0.1
v 1 3.7 0.3
v 1 3.7 0.2
v 1 3.7 0.1
v 1 3.7 0
v 1 3.8 0.3
v 1 3.8 0.2
v 1 3.8 0.1
v 1 3.8 0
v -0.8 3.6 0.2
v -0.8 3.6 0.1
v -0.8 3.7 0.3
v -0.8 3.7 0.2
v -0.8 3.7 0.1
v -0.8 3.7 0
v -0.8 3.8 0.3
v -0.8 3.8 0.2
v -0.8 3.8 0.1
v -0.8 3.8 0
v -0.7 3.7 0.2
v -0.7 3.7 0.1
v -0.7 3.8 0.3
v -0.7 3.8 0.2
v -0.7 3.8 0.1
v -0.7 3.8 0
v -0.7 3.9 0.3
v -0.7 3.9 0
v -0.2 3.3 0.1
v -0.2 3.3 0
v -0.2 3.4 0.1
v -0.2 3.4 0
v -0.0999999 3.6 0.4
v -0.0999999 3.6 0.3
v -0.0999999 3.7 0.4
v -0.0999999 3.7 0.3
v 0.4 3.7 0.2
v 0.4 3.7 0.1
v 0.4 3.8 0.2
v 0.4 3.8 0.1
v 1.1 3.5 0.2
v 1.1 3.5 0.1
v 1.1 3.6 0.2
v 1.1 3.6 0.1
v 1.1 3.7 0.3
v 1.1 3.7 0.2
v 1.1 3.7 0.1
v 1.1 3.7 0
v 1.1 3.8 0.3
v 1.1 3.8 0.2
v 1.1 3.8 0.1
v 1.1 3.8 0
v 1.2 3.6 0.2
v 1.2 3.6 0.1
v 1.2 3.8 0.3
v 1.2 3.8 0.2
v 1.2 3.8 0.1
v 1.2 3.8 0
v 1.2 3.9 0.3
v 1.2 3.9 0
v -0.2 3.6 0.4
v -0.2 3.7 0.4
v -0.0999999 3.6 0.4
v -0.0999999 3.7 0.4
v -1 3.8 0.3
v -1 3.9 0.3
v -0.9 3.7 0.3
v -0.9 3.8 0.3
v -0.8 3.7 0.3
v -0.8 3.8 0.3
v -0.7 3.8 0.3
v -0.7 3.9 0.3
v 0.9 3.8 0.3
v 0.9 3.9 0.3
v 1 3.7 0.3
v 1 3.8 0.3
v 1.1 3.7 0.3
v 1.1 3.8 0.3
v 1.2 3.8 0.3
v 1.2 3.9 0.3
v -1 3.6 0.2
v -1 3.8 0.2
v -0.9 3.5 0.2
v -0.9 3.6 0.2
v -0.9 3.7 0.2
v -0.9 3.8 0.2
v -0.8 3.5 0.2
v -0.8 3.6 0.2
v -0.8 3.7 0.2
v -0.8 3.8 0.2
v -0.7 3.5 0.2
v -0.7 3.6 0.2
v -0.7 3.7 0.2
v -0.7 3.8 0.2
v 0.3 3.7 0.2
v 0.3 3.8 0.2
v 0.4 3.7 0.2
v 0.4 3.8 0.2
v 0.9 3.5 0.2
v 0.9 3.6 0.2
v 0.9 3.7 0.2
v 0.9 3.8 0.2
v 1 3.5 0.2
v 1 3.6 0.2
v 1 3.7 0.2
v 1 3.8 0.2
v 1.1 3.5 0.2
v 1.1 3.6 0.2
v 1.1 3.7 0.2
v 1.1 3.8 0.2
v 1.2 3.6 0.2
v 1.2 3.8 0.2
v -0.3 3.3 0.1
v -0.3 3.4 0.1
v -0.2 3.3 0.1
v -0.2 3.4 0.1
v -0.2 3.6 0.3
v -0.2 3.7 0.3
v -0.0999999 3.6 0.3
v -0.0999999 3.7 0.3
v -1 3.6 0.1
v -1 3.8 0.1
v -0.9 3.5 0.1
v -0.9 3.6 0.1
v -0.9 3.7 0.1
v -0.9 3.8 0.1
v -0.8 3.5 0.1
v -0.8 3.6 0.1
v -0.8 3.7 0.1
v -0.8 3.8 0.1
v -0.7 3.5 0.1
v -0.7 3.6 0.1
v -0.7 3.7 0.1
v -0.7 3.8 0.1
v 0.3 3.7 0.1
v 0.3 3.8 0.1
v 0.4 3.7 0.1
v 0.4 3.8 0.1
v 0.9 3.5 0.1
v 0.9 3.6 0.1
v 0.9 3.7 0.1
v 0.9 3.8 0.1
v 1 3.5 0.1
v 1 3.6 0.1
v 1 3.7 0.1
v 1 3.8 0.1
v 1.1 3.5 0.1
v 1.1 3.6 0.1
v 1.1 3.7 0.1
v 1.1 3.8 0.1
v 1.2 3.6 0.1
v 1.2 3.8 0.1
v -1 3.8 0
v -1 3.9 0
v -0.9 3.7 0
v -0.9 3.8 0
v -0.8 3.7 0
v -0.8 3.8 0
v -0.7 3.8 0
v -0.7 3.9 0
v -0.3 3.3 0
v -0.3 3.4 0
v -0.2 3.3 0
v -0.2 3.4 0
v 0.9 3.8 0
v 0.9 3.9 0
v 1 3.7 0
v 1 3.8 0
v 1.1 3.7 0
v 1.1 3.8 0
v 1.2 3.8 0
v 1.2 3.9 0
v -0.3 3.3 0.1
v -0.2 3.3 0.1
v -0.3 3.3 0
v -0.2 3.3 0
v -0.9 3.5 0.2
v -0.8 3.5 0.2
v -0.7 3.5 0.2
v 0.9 3.5 0.2
v 1 3.5 0.2
v 1.1 3.5 0.2
v -0.9 3.5 0.1
v -0.8 3.5 0.1
v -0.7 3.5 0.1
v 0.9 3.5 0.1
v 1 3.5 0.1
v 1.1 3.5 0.1
v -0.2 3.6 0.4
v -0.0999999 3.6 0.4
v -0.2 3.6 0.3
v -0.0999999 3.6 0.3
v -1 3.6 0.2
v -0.9 3.6 0.2
v 1.1 3.6 0.2
v 1.2 3.6 0.2
v -1 3.6 0.1
v -0.9 3.6 0.1
v 1.1 3.6 0.1
v 1.2 3.6 0.1
v -0.9 3.7 0.3
v -0.8 3.7 0.3
v 1 3.7 0.3
v 1.1 3.7 0.3
v -0.9 3.7 0.2
v -0.8 3.7 0.2
v -0.7 3.7 0.2
v 0.3 3.7 0.2
v 0.4 3.7 0.2
v 0.9 3.7 0.2
v 1 3.7 0.2
v 1.1 3.7 0.2
v -0.9 3.7 0.1
v -0.8 3.7 0.1
v -0.7 3.7 0.1
v 0.3 3.7 0.1
v 0.4 3.7 0.1
v 0.9 3.7 0.1
v 1 3.7 0.1
v 1.1 3.7 0.1
v -0.9 3.7 0
v -0.8 3.7 0
v 1 3.7 0
v 1.1 3.7 0
v -1 3.8 0.3
v -0.9 3.8 0.3
v -0.8 3.8 0.3
v -0.7 3.8 0.3
v 0.9 3.8 0.3
v 1 3.8 0.3
v 1.1 3.8 0.3
v 1.2 3.8 0.3
v -1 3.8 0.2
v -0.9 3.8 0.2
v -0.8 3.8 0.2
v -0.7 3.8 0.2
v 0.9 3.8 0.2
v 1 3.8 0.2
v 1.1 3.8 0.2
v 1.2 3.8 0.2
v -1 3.8 0.1
v -0.9 3.8 0.1
v -0.8 3.8 0.1
v -0.7 3.8 0.1
v 0.9 3.8 0.1
v 1 3.8 0.1
v 1.1 3.8 0.1
v 1.2 3.8 0.1
v -1 3.8 0
v -0.9 3.8 0
v -0.8 3.8 0
v -0.7 3.8 0
v 0.9 3.8 0
v 1 3.8 0
v 1.1 3.8 0
v 1.2 3.8 0
v -0.3 3.4 0.1
v -0.2 3.4 0.1
v -0.3 3.4 0
v -0.2 3.4 0
v -0.8 3.6 0.2
v -0.7 3.6 0.2
v 0.9 3.6 0.2
v 1 3.6 0.2
v -0.8 3.6 0.1
v -0.7 3.6 0.1
v 0.9 3.6 0.1
v 1 3.6 0.1
v -0.2 3.7 0.4
v -0.0999999 3.7 0.4
v -0.2 3.7 0.3
v -0.0999999 3.7 0.3
v 0.3 3.8 0.2
v 0.4 3.8 0.2
v 0.3 3.8 0.1
v 0.4 3.8 0.1
v -1 3.9 0.3
v -0.7 3.9 0.3
v 0.9 3.9 0.3
v 1.2 3.9 0.3
v -1 3.9 0
v -0.7 3.9 0
v 0.9 3.9 0
v 1.2 3.9 0

# faces
f 4/2/1 2/2/1 1/2/1
f 5/2/1 2/2/1 4/2/1
f 7/2/1 4/2/1 3/2/1
f 7/2/1 6/2/1 5/2/1
f 7/2/1 5/2/1 4/2/1
f 8/2/1 6/2/1 7/2/1
f 11/2/1 10/2/1 9/2/1
f 12/2/1 10/2/1 11/2/1
f 17/2/1 14/2/1 13/2/1
f 18/2/1 14/2/1 17/2/1
f 19/2/1 16/2/1 15/2/1
f 20/2/1 16/2/1 19/2/1
f 23/1/1 22/1/1 21/1/1
f 24/1/1 22/1/1 23/1/1
f 27/1/1 26/1/1 25/1/1
f 28/1/1 26/1/1 27/1/1
f 31/1/1 30/1/1 29/1/1
f 32/1/1 30/1/1 31/1/1
f 36/2/1 34/2/1 33/2/1
f 37/2/1 34/2/1 36/2/1
f 39/2/1 36/2/1 35/2/1
f 39/2/1 38/2/1 37/2/1
f 39/2/1 37/2/1 36/2/1
f 40/2/1 38/2/1 39/2/1
f 44/3/1 42/3/1 41/3/1
f 45/3/1 42/3/1 44/3/1
f 47/2/1 44/2/1 43/2/1
f 48/2/1 44/2/1 47/2/1
f 49/2/1 46/2/1 45/2/1
f 50/2/1 46/2/1 49/2/1
f 51/3/2 52/3/2 54/3/2
f 54/3/2 52/3/2 55/3/2
f 53/2/2 54/2/2 57/2/2
f 57/2/2 54/2/2 58/2/2
f 55/2/2 56/2/2 59/2/2
f 59/2/2 56/2/2 60/2/2
f 61/2/2 62/2/2 64/2/2
f 64/2/2 62/2/2 65/2/2
f 63/2/2 64/2/2 67/2/2
f 65/2/2 66/2/2 67/2/2
f 64/2/2 65/2/2 67/2/2
f 67/2/2 66/2/2 68/2/2
f 69/1/2 70/1/2 71/1/2
f 71/1/2 70/1/2 72/1/2
f 73/1/2 74/1/2 75/1/2
f 75/1/2 74/1/2 76/1/2
f 77/1/2 78/1/2 79/1/2
f 79/1/2 78/1/2 80/1/2
f 81/2/2 82/2/2 83/2/2
f 83/2/2 82/2/2 84/2/2
f 85/2/2 86/2/2 89/2/2
f 89/2/2 86/2/2 90/2/2
f 87/2/2 88/2/2 91/2/2
f 91/2/2 88/2/2 92/2/2
f 93/2/2 94/2/2 96/2/2
f 96/2/2 94/2/2 97/2/2
f 95/2/2 96/2/2 99/2/2
f 97/2/2 98/2/2 99/2/2
f 96/2/2 97/2/2 99/2/2
f 99/2/2 98/2/2 100/2/2
f 103/1/3 102/1/3 101/1/3
f 104/1/3 102/1/3 103/1/3
f 108/2/3 106/2/3 105/2/3
f 109/2/3 108/2/3 107/2/3
f 110/2/3 106/2/3 108/2/3
f 110/2/3 108/2/3 109/2/3
f 111/2/3 106/2/3 110/2/3
f 112/2/3 106/2/3 111/2/3
f 116/2/3 114/2/3 113/2/3
f 117/2/3 116/2/3 115/2/3
f 118/2/3 114/2/3 116/2/3
f 118/2/3 116/2/3 117/2/3
f 119/2/3 114/2/3 118/2/3
f 120/2/3 114/2/3 119/2/3
f 124/2/3 122/2/3 121/2/3
f 125/2/3 122/2/3 124/2/3
f 126/2/3 122/2/3 125/2/3
f 127/2/3 124/2/3 123/2/3
f 128/3/3 125/3/3 124/3/3
f 128/2/3 124/2/3 127/2/3
f 129/3/3 125/3/3 128/3/3
f 131/3/3 128/3/3 127/3/3
f 132/3/3 128/3/3 131/3/3
f 133/2/3 130/2/3 129/2/3
f 134/2/3 130/2/3 133/2/3
f 137/1/3 136/1/3 135/1/3
f 138/1/3 136/1/3 137/1/3
f 139/1/3 132/1/3 131/1/3
f 140/1/3 132/1/3 139/1/3
f 143/3/3 140/3/3 139/3/3
f 144/3/3 140/3/3 143/3/3
f 145/2/3 142/2/3 141/2/3
f 146/2/3 142/2/3 145/2/3
f 147/2/3 144/2/3 143/2/3
f 148/3/3 145/3/3 144/3/3
f 148/2/3 144/2/3 147/2/3
f 149/3/3 145/3/3 148/3/3
f 151/2/3 150/2/3 149/2/3
f 151/2/3 149/2/3 148/2/3
f 152/2/3 150/2/3 151/2/3
f 155/1/3 154/1/3 153/1/3
f 156/1/3 154/1/3 155/1/3
f 157/1/4 158/1/4 159/1/4
f 159/1/4 158/1/4 160/1/4
f 161/2/4 162/2/4 164/2/4
f 164/2/4 162/2/4 165/2/4
f 165/2/4 162/2/4 166/2/4
f 163/2/4 164/2/4 167/2/4
f 164/3/4 165/3/4 168/3/4
f 167/2/4 164/2/4 168/2/4
f 168/3/4 165/3/4 169/3/4
f 167/3/4 168/3/4 171/3/4
f 171/3/4 168/3/4 172/3/4
f 169/2/4 170/2/4 173/2/4
f 173/2/4 170/2/4 174/2/4
f 175/1/4 176/1/4 177/1/4
f 177/1/4 176/1/4 178/1/4
f 171/1/4 172/1/4 179/1/4
f 179/1/4 172/1/4 180/1/4
f 179/3/4 180/3/4 183/3/4
f 183/3/4 180/3/4 184/3/4
f 181/2/4 182/2/4 185/2/4
f 185/2/4 182/2/4 186/2/4
f 183/2/4 184/2/4 187/2/4
f 184/3/4 185/3/4 188/3/4
f 187/2/4 184/2/4 188/2/4
f 188/3/4 185/3/4 189/3/4
f 189/2/4 190/2/4 191/2/4
f 188/2/4 189/2/4 191/2/4
f 191/2/4 190/2/4 192/2/4
f 193/2/4 194/2/4 196/2/4
f 195/2/4 196/2/4 197/2/4
f 196/2/4 194/2/4 198/2/4
f 197/2/4 196/2/4 198/2/4
f 198/2/4 194/2/4 199/2/4
f 199/2/4 194/2/4 200/2/4
f 201/1/4 202/1/4 203/1/4
f 203/1/4 202/1/4 204/1/4
f 205/2/4 206/2/4 208/2/4
f 207/2/4 208/2/4 209/2/4
f 208/2/4 206/2/4 210/2/4
f 209/2/4 208/2/4 210/2/4
f 210/2/4 206/2/4 211/2/4
f 211/2/4 206/2/4 212/2/4
f 215/1/5 214/1/5 213/1/5
f 216/1/5 214/1/5 215/1/5
f 223/2/5 218/2/5 217/2/5
f 224/3/5 219/3/5 218/3/5
f 224/2/5 218/2/5 223/2/5
f 225/1/5 220/1/5 219/1/5
f 225/3/5 219/3/5 224/3/5
f 226/3/5 221/3/5 220/3/5
f 226/1/5 220/1/5 225/1/5
f 227/2/5 222/2/5 221/2/5
f 227/3/5 221/3/5 226/3/5
f 228/2/5 222/2/5 227/2/5
f 231/1/5 230/1/5 229/1/5
f 232/1/5 230/1/5 231/1/5
f 237/2/5 234/2/5 233/2/5
f 238/2/5 234/2/5 237/2/5
f 239/2/5 236/2/5 235/2/5
f 240/2/5 236/2/5 239/2/5
f 245/2/5 242/2/5 241/2/5
f 246/2/5 242/2/5 245/2/5
f 251/2/5 244/2/5 243/2/5
f 252/2/5 244/2/5 251/2/5
f 254/2/5 247/2/5 246/2/5
f 255/2/5 247/2/5 254/2/5
f 256/1/5 249/1/5 248/1/5
f 257/1/5 249/1/5 256/1/5
f 258/2/5 251/2/5 250/2/5
f 259/2/5 251/2/5 258/2/5
f 261/2/5 254/2/5 253/2/5
f 262/2/5 254/2/5 261/2/5
f 263/2/5 260/2/5 259/2/5
f 264/2/5 260/2/5 263/2/5
f 273/2/5 266/2/5 265/2/5
f 274/2/5 266/2/5 273/2/5
f 275/2/5 268/2/5 267/2/5
f 276/2/5 268/2/5 275/2/5
f 277/2/5 270/2/5 269/2/5
f 278/2/5 270/2/5 277/2/5
f 279/2/5 272/2/5 271/2/5
f 280/2/5 272/2/5 279/2/5
f 289/2/5 282/2/5 281/2/5
f 290/2/5 282/2/5 289/2/5
f 291/2/5 284/2/5 283/2/5
f 292/2/5 284/2/5 291/2/5
f 293/2/5 286/2/5 285/2/5
f 294/2/5 286/2/5 293/2/5
f 295/2/5 288/2/5 287/2/5
f 296/2/5 288/2/5 295/2/5
f 297/1/6 298/1/6 299/1/6
f 299/1/6 298/1/6 300/1/6
f 301/3/6 302/3/6 305/3/6
f 302/1/6 303/1/6 306/1/6
f 305/3/6 302/3/6 306/3/6
f 303/3/6 304/3/6 307/3/6
f 306/1/6 303/1/6 307/1/6
f 307/3/6 304/3/6 308/3/6
f 309/1/6 310/1/6 311/1/6
f 311/1/6 310/1/6 312/1/6
f 313/1/6 314/1/6 315/1/6
f 315/1/6 314/1/6 316/1/6
f 317/2/6 318/2/6 321/2/6
f 321/2/6 318/2/6 322/2/6
f 319/2/6 320/2/6 323/2/6
f 323/2/6 320/2/6 324/2/6
